<svg xmlns="http://www.w3.org/2000/svg" viewBox="0 0 340 210" fill="none">
  <defs>
    <linearGradient id="leaf4" x1="170" y1="20" x2="170" y2="130" gradientUnits="userSpaceOnUse">
      <stop stop-color="#86efac"/>
      <stop offset="0.5" stop-color="#22c55e"/>
      <stop offset="1" stop-color="#15803d"/>
    </linearGradient>
  </defs>

  <!-- Leaf centered on top -->
  <g transform="translate(130, 16) rotate(-10 40 60)">
    <path d="M40 4 C 10 26, 6 70, 40 116 C 74 70, 70 26, 40 4 Z" fill="url(#leaf4)"/>
    <path d="M40 12 Q 34 64 44 114" stroke="#14532d" stroke-width="1.8" stroke-linecap="round" fill="none" opacity="0.55"/>
    <path d="M40 32 Q 28 38 18 46" stroke="#14532d" stroke-width="1.2" stroke-linecap="round" fill="none" opacity="0.4"/>
    <path d="M40 52 Q 26 60 14 70" stroke="#14532d" stroke-width="1.2" stroke-linecap="round" fill="none" opacity="0.4"/>
    <path d="M40 74 Q 28 82 20 90" stroke="#14532d" stroke-width="1.2" stroke-linecap="round" fill="none" opacity="0.4"/>
    <path d="M40 32 Q 52 38 60 46" stroke="#14532d" stroke-width="1.2" stroke-linecap="round" fill="none" opacity="0.4"/>
    <path d="M40 52 Q 54 60 64 68" stroke="#14532d" stroke-width="1.2" stroke-linecap="round" fill="none" opacity="0.4"/>
    <path d="M40 74 Q 52 82 58 88" stroke="#14532d" stroke-width="1.2" stroke-linecap="round" fill="none" opacity="0.4"/>
  </g>

  <!-- Wordmark: GreenPages -->
  <text x="170" y="190" text-anchor="middle" font-family="system-ui, -apple-system, BlinkMacSystemFont, 'Segoe UI', Roboto, sans-serif" font-size="40" font-weight="800" letter-spacing="-0.5">
    <tspan fill="#15803d">Green</tspan><tspan fill="#22c55e">Pages</tspan>
  </text>
</svg>
